<svg width="74" height="74" viewBox="0 0 74 74" fill="none" xmlns="http://www.w3.org/2000/svg">
<circle cx="37" cy="37" r="37" fill="#FF6143"/>
<mask id="mask0_6_145" style="mask-type:alpha" maskUnits="userSpaceOnUse" x="0" y="0" width="74" height="74">
<rect width="74" height="74" rx="37" fill="white"/>
</mask>
<g mask="url(#mask0_6_145)">
<path d="M-29.2234 4.88729H-10.3327L5.69198 43.9629H6.43158L22.4563 4.88729H41.347V68H26.4933V29.2325H25.9694L10.8076 67.5994H1.316L-13.8458 29.0168H-14.3697V68H-29.2234V4.88729ZM59.3362 68.8937C57.1174 68.8937 55.2171 68.113 53.6351 66.5516C52.0738 64.9902 51.3033 63.1001 51.3239 60.8813C51.3033 58.7036 52.0738 56.8443 53.6351 55.3035C55.2171 53.7421 57.1174 52.9614 59.3362 52.9614C61.4318 52.9614 63.2808 53.7421 64.8832 55.3035C66.5063 56.8443 67.328 58.7036 67.3486 60.8813C67.328 62.3605 66.9377 63.7062 66.1776 64.9183C65.4379 66.1305 64.4621 67.096 63.25 67.8151C62.0584 68.5342 60.7538 68.8937 59.3362 68.8937Z" fill="white"/>
</g>
<circle cx="37" cy="37" r="37" fill="#FF6143"/>
<mask id="mask1_6_145" style="mask-type:alpha" maskUnits="userSpaceOnUse" x="0" y="0" width="74" height="74">
<rect width="74" height="74" rx="37" fill="white"/>
</mask>
<g mask="url(#mask1_6_145)">
<path d="M-29.2234 4.88729H-10.3327L5.69198 43.9629H6.43158L22.4563 4.88729H41.347V68H26.4933V29.2325H25.9694L10.8076 67.5994H1.316L-13.8458 29.0168H-14.3697V68H-29.2234V4.88729ZM59.3362 68.8937C57.1174 68.8937 55.2171 68.113 53.6351 66.5516C52.0738 64.9902 51.3033 63.1001 51.3239 60.8813C51.3033 58.7036 52.0738 56.8443 53.6351 55.3035C55.2171 53.7421 57.1174 52.9614 59.3362 52.9614C61.4318 52.9614 63.2808 53.7421 64.8832 55.3035C66.5063 56.8443 67.328 58.7036 67.3486 60.8813C67.328 62.3605 66.9377 63.7062 66.1776 64.9183C65.4379 66.1305 64.4621 67.096 63.25 67.8151C62.0584 68.5342 60.7538 68.8937 59.3362 68.8937Z" fill="white"/>
</g>
</svg>
